<svg width="49" height="46" viewBox="0 0 49 46" version="1.1" xmlns="http://www.w3.org/2000/svg" xmlns:xlink="http://www.w3.org/1999/xlink">
<title>Group</title>
<desc>Created using Figma</desc>
<g id="Canvas" transform="translate(326 738)">
<g id="Group">
<g id="Mask Group">
<mask id="mask0_alpha" mask-type="alpha">
<g id="G">
<use xlink:href="#path0_fill" transform="translate(-298 -721)" fill="#FFFFFF"/>
</g>
</mask>
<g id="Rectangle" mask="url(#mask0_alpha)">
<use xlink:href="#path1_fill" transform="translate(-298 -721)" fill="#FFFFFF"/>
</g>
</g>
<g id="Mask Group">
<mask id="mask1_alpha" mask-type="alpha">
<g id="S">
<use xlink:href="#path2_fill" transform="translate(-320 -728)" fill="#FFFFFF"/>
</g>
</mask>
<g id="Rectangle" mask="url(#mask1_alpha)">
<use xlink:href="#path3_fill" transform="translate(-320 -721)" fill="#FFFFFF"/>
</g>
</g>
<g id="Rectangle">
<use xlink:href="#path4_fill" transform="translate(-326 -720)" fill="#FFFFFF"/>
</g>
<g id="Vector">
<use xlink:href="#path5_fill" transform="translate(-324 -738)" fill="#FFFFFF"/>
</g>
</g>
</g>
<defs>
<path id="path0_fill" d="M 20.8184 23.8428C 19.903 25.154 18.6227 26.1374 16.9775 26.793C 15.3447 27.4362 13.4398 27.7578 11.2627 27.7578C 9.06087 27.7578 7.10645 27.2445 5.39941 26.2178C 3.69238 25.1787 2.36882 23.7067 1.42871 21.8018C 0.500977 19.8968 0.0247396 17.6888 0 15.1777L 0 12.8213C 0 8.75163 0.946289 5.59733 2.83887 3.3584C 4.74382 1.11947 7.41569 0 10.8545 0C 13.6748 0 15.9447 0.723633 17.6641 2.1709C 19.3835 3.60579 20.4349 5.64681 20.8184 8.29395L 17.2559 8.29395C 16.5879 4.71908 14.4603 2.93164 10.873 2.93164C 8.48568 2.93164 6.6735 3.77279 5.43652 5.45508C 4.21191 7.125 3.59342 9.54948 3.58105 12.7285L 3.58105 14.9365C 3.58105 17.9671 4.27376 20.3792 5.65918 22.1729C 7.0446 23.9541 8.91862 24.8447 11.2812 24.8447C 12.6172 24.8447 13.7861 24.6963 14.7881 24.3994C 15.79 24.1025 16.6188 23.6016 17.2744 22.8965L 17.2744 16.8291L 11.0215 16.8291L 11.0215 13.9346L 20.8184 13.9346L 20.8184 23.8428Z"/>
<path id="path1_fill" d="M 0 0L 21 0L 21 28L 0 28L 0 0Z"/>
<path id="path2_fill" d="M 14.7139 28.1719C 14.7139 26.8236 14.349 25.7907 13.6191 25.0732C 12.8893 24.3558 11.5719 23.6569 9.66699 22.9766C 7.76204 22.2962 6.30241 21.585 5.28809 20.8428C 4.28613 20.0882 3.53158 19.2347 3.02441 18.2822C 2.52962 17.3174 2.28223 16.2165 2.28223 14.9795C 2.28223 12.8395 2.99349 11.0768 4.41602 9.69141C 5.85091 8.30599 7.72493 7.61328 10.0381 7.61328C 11.6214 7.61328 13.0316 7.97201 14.2686 8.68945C 15.5055 9.39453 16.458 10.3779 17.126 11.6396C 17.7939 12.9014 18.1279 14.2868 18.1279 15.7959L 14.7139 15.7959C 14.7139 14.126 14.3118 12.8333 13.5078 11.918C 12.7038 11.0026 11.5472 10.5449 10.0381 10.5449C 8.66504 10.5449 7.60124 10.9284 6.84668 11.6953C 6.09212 12.4622 5.71484 13.5384 5.71484 14.9238C 5.71484 16.0618 6.12305 17.0143 6.93945 17.7812C 7.75586 18.5482 9.01758 19.2347 10.7246 19.8408C 13.3841 20.7191 15.2829 21.8014 16.4209 23.0879C 17.5713 24.3743 18.1465 26.0566 18.1465 28.1348C 18.1465 30.3242 17.4352 32.0807 16.0127 33.4043C 14.5902 34.7155 12.6543 35.3711 10.2051 35.3711C 8.63411 35.3711 7.18066 35.0309 5.84473 34.3506C 4.52116 33.6579 3.47591 32.693 2.70898 31.4561C 1.95443 30.2067 1.57715 28.778 1.57715 27.1699L 4.99121 27.1699C 4.99121 28.8398 5.45508 30.1387 6.38281 31.0664C 7.32292 31.9941 8.59701 32.458 10.2051 32.458C 11.7018 32.458 12.8275 32.0745 13.582 31.3076C 14.3366 30.5407 14.7139 29.4954 14.7139 28.1719Z"/>
<path id="path3_fill" d="M 0 0L 21 0L 21 29L 0 29L 0 0Z"/>
<path id="path4_fill" d="M 0 0L 4 0L 4 27L 0 27L 0 0Z"/>
<path id="path5_fill" d="M 7 13L 0 13C 2.33333 8.66667 10.2 0 23 0C 35.8 0 43.6667 8.66667 46 13L 39.5 13C 38.1667 10.3333 33 5 23 5C 13 5 8.16667 10.3333 7 13Z"/>
</defs>
</svg>
